<?xml version="1.0" encoding="UTF-8" standalone="no"?>
<!DOCTYPE svg PUBLIC "-//W3C//DTD SVG 1.1//EN" "http://www.w3.org/Graphics/SVG/1.1/DTD/svg11.dtd">
<svg version="1.1" xmlns="http://www.w3.org/2000/svg" xmlns:xlink="http://www.w3.org/1999/xlink" preserveAspectRatio="xMidYMid meet" viewBox="0 0 640 640" width="640" height="640"><defs><path d="M11.93 489.47C11.93 484.85 11.93 461.74 11.93 420.14C66.85 420.14 506.18 420.14 561.1 420.14C561.1 461.74 561.1 484.85 561.1 489.47C561.1 496.02 555.72 501.4 549.04 501.4C444 501.4 76.37 501.4 23.85 501.4C17.3 501.4 11.93 496.02 11.93 489.47Z" id="a2BSEfhr0o"></path><path d="M11.93 489.47C11.93 484.85 11.93 461.74 11.93 420.14C66.85 420.14 506.18 420.14 561.1 420.14C561.1 461.74 561.1 484.85 561.1 489.47C561.1 496.02 555.72 501.4 549.04 501.4C444 501.4 76.37 501.4 23.85 501.4C17.3 501.4 11.93 496.02 11.93 489.47Z" id="b5uo86zYSu"></path><path d="M297.64 97.75C297.64 111.75 297.64 223.73 297.64 237.73C297.64 258.44 314.68 275.47 335.38 275.47C337.36 275.47 347.23 275.47 365.01 275.47C365.01 279.93 365.01 302.21 365.01 342.32C406.84 302.21 430.08 279.93 434.73 275.47C512.67 275.47 555.96 275.47 564.62 275.47C585.33 275.47 602.37 258.44 602.37 237.73C602.37 223.73 602.37 111.75 602.37 97.75C602.37 76.91 585.46 60 564.62 60C518.77 60 358.31 60 335.38 60C314.68 60 297.64 77.04 297.64 97.75Z" id="aNd2WfeWa"></path><path d="M277.92 102.99L278.4 103.04L278.87 103.11L279.34 103.2L279.8 103.3L280.25 103.42L280.7 103.56L281.14 103.72L281.57 103.9L282 104.09L282.41 104.29L282.82 104.51L283.21 104.75L283.6 105L283.97 105.26L284.34 105.54L285.04 106.14L285.37 106.46L285.68 106.79L285.99 107.13L286.28 107.49L286.56 107.85L286.83 108.23L287.08 108.61L287.31 109.01L287.53 109.41L287.74 109.83L287.93 110.25L288.1 110.68L288.26 111.12L288.4 111.57L288.52 112.02L288.63 112.49L288.71 112.95L288.78 113.43L288.83 113.91L288.86 114.39L288.87 114.88L288.86 115.37L288.83 115.85L288.78 116.33L288.71 116.81L288.63 117.27L288.52 117.74L288.4 118.19L288.26 118.64L288.1 119.08L287.93 119.51L287.74 119.93L287.53 120.35L287.31 120.75L287.08 121.15L286.83 121.53L286.56 121.91L286.28 122.27L285.99 122.63L285.68 122.97L285.37 123.3L285.04 123.62L284.34 124.22L283.97 124.5L283.6 124.76L283.21 125.01L282.82 125.25L282.41 125.47L282 125.68L281.57 125.87L281.14 126.04L280.7 126.2L280.25 126.34L279.8 126.46L279.34 126.56L278.87 126.65L278.4 126.72L277.92 126.77L277.43 126.8L276.94 126.81L49.54 126.81L48.48 126.83L47.42 126.89L46.38 127L45.35 127.15L44.33 127.34L43.33 127.56L42.34 127.83L41.37 128.13L40.42 128.47L39.48 128.85L38.56 129.26L37.67 129.71L36.79 130.19L35.93 130.7L35.1 131.24L34.28 131.82L33.49 132.42L32.73 133.06L31.99 133.72L31.28 134.41L30.59 135.13L29.93 135.87L29.3 136.63L28.7 137.42L28.13 138.24L27.59 139.07L27.08 139.93L26.6 140.81L26.16 141.71L25.75 142.62L25.37 143.56L25.04 144.51L24.74 145.47L24.47 146.46L24.25 147.45L24.06 148.46L23.91 149.49L23.81 150.52L23.74 151.57L23.72 152.63L23.72 413.06L549.17 413.06L549.17 298.64L549.18 298.15L549.21 297.66L549.26 297.18L549.33 296.71L549.41 296.24L549.52 295.78L549.64 295.33L549.78 294.88L549.94 294.44L550.11 294.01L550.3 293.58L550.51 293.17L550.73 292.76L550.97 292.37L551.22 291.98L551.48 291.61L551.76 291.24L552.05 290.89L552.36 290.55L552.68 290.22L553.01 289.9L553.35 289.59L553.7 289.3L554.07 289.02L554.44 288.75L554.83 288.5L555.23 288.27L555.63 288.05L556.05 287.84L556.47 287.65L556.9 287.48L557.34 287.32L557.79 287.18L558.24 287.06L558.7 286.95L559.17 286.87L559.64 286.8L560.12 286.75L560.61 286.72L561.1 286.71L561.59 286.72L562.07 286.75L562.55 286.8L563.02 286.86L563.49 286.95L563.95 287.05L564.4 287.17L564.84 287.31L565.28 287.46L565.71 287.63L566.13 287.82L566.54 288.02L566.94 288.24L567.33 288.47L567.72 288.71L568.09 288.97L568.45 289.25L568.8 289.54L569.14 289.84L569.47 290.15L569.79 290.48L570.09 290.81L570.38 291.16L570.66 291.52L570.92 291.89L571.17 292.27L571.41 292.67L571.63 293.07L571.84 293.48L572.03 293.9L572.2 294.33L572.36 294.76L572.51 295.21L572.63 295.66L572.74 296.12L572.84 296.58L572.91 297.05L572.97 297.53L573.01 298.02L573.02 298.51L573.02 466.01L572.98 468.04L572.86 470.06L572.66 472.05L572.37 474.02L572.01 475.96L571.58 477.88L571.07 479.77L570.49 481.63L569.84 483.46L569.12 485.25L568.33 487.01L567.48 488.73L566.56 490.42L565.58 492.06L564.54 493.66L563.44 495.23L562.28 496.74L561.07 498.21L559.8 499.63L558.48 501L557.1 502.32L555.68 503.59L554.21 504.81L552.7 505.96L551.14 507.06L549.53 508.11L547.89 509.09L546.21 510L544.48 510.86L542.72 511.64L540.93 512.36L539.1 513.02L537.24 513.6L535.35 514.11L533.44 514.54L531.49 514.9L529.52 515.18L527.53 515.39L525.52 515.51L523.48 515.55L298.44 515.55L298.44 593.01L403.95 593.01L404.44 593.02L404.92 593.05L405.4 593.1L405.87 593.17L406.34 593.26L406.8 593.36L407.26 593.48L407.71 593.62L408.14 593.78L408.58 593.95L409 594.14L409.41 594.35L409.82 594.57L410.22 594.81L410.6 595.06L410.98 595.32L411.34 595.6L411.7 595.89L412.04 596.2L412.37 596.52L412.69 596.85L412.99 597.19L413.29 597.55L413.56 597.91L413.83 598.29L414.08 598.67L414.32 599.07L414.54 599.47L414.74 599.89L414.93 600.31L415.11 600.74L415.26 601.18L415.4 601.63L415.53 602.08L415.63 602.55L415.72 603.01L415.79 603.49L415.84 603.97L415.87 604.45L415.88 604.94L415.87 605.43L415.84 605.91L415.79 606.39L415.72 606.87L415.63 607.33L415.53 607.79L415.4 608.25L415.26 608.7L415.11 609.14L414.93 609.57L414.74 609.99L414.54 610.41L414.32 610.81L414.08 611.21L413.83 611.59L413.56 611.97L413.29 612.33L412.99 612.69L412.69 613.03L412.37 613.36L412.04 613.68L411.7 613.98L411.34 614.28L410.98 614.56L410.6 614.82L410.22 615.07L409.82 615.31L409.41 615.53L409 615.73L408.58 615.92L408.14 616.1L407.71 616.26L407.26 616.4L406.8 616.52L406.34 616.62L405.87 616.71L405.4 616.78L404.92 616.83L404.44 616.86L403.95 616.87L169.08 616.87L168.59 616.86L168.1 616.83L167.62 616.78L167.15 616.71L166.68 616.62L166.22 616.52L165.77 616.4L165.32 616.26L164.88 616.1L164.45 615.92L164.02 615.73L163.61 615.53L163.2 615.31L162.81 615.07L162.42 614.82L162.05 614.56L161.68 614.28L161.33 613.98L160.99 613.68L160.66 613.36L160.34 613.03L160.03 612.69L159.74 612.33L159.46 611.97L158.94 611.21L158.71 610.81L158.49 610.41L158.28 609.99L158.09 609.57L157.92 609.14L157.76 608.7L157.62 608.25L157.5 607.79L157.39 607.33L157.31 606.87L157.24 606.39L157.19 605.91L157.16 605.43L157.15 604.94L157.16 604.45L157.19 603.97L157.24 603.49L157.31 603.01L157.39 602.55L157.5 602.08L157.62 601.63L157.76 601.18L157.92 600.74L158.09 600.31L158.28 599.89L158.49 599.47L158.71 599.07L158.94 598.67L159.46 597.91L159.74 597.55L160.03 597.19L160.34 596.85L160.66 596.52L160.99 596.2L161.33 595.89L161.68 595.6L162.05 595.32L162.42 595.06L162.81 594.81L163.2 594.57L163.61 594.35L164.02 594.14L164.45 593.95L164.88 593.78L165.32 593.62L165.77 593.48L166.22 593.36L166.68 593.26L167.15 593.17L167.62 593.1L168.1 593.05L168.59 593.02L169.08 593.01L274.59 593.01L274.59 515.55L49.54 515.55L47.51 515.51L45.49 515.39L43.5 515.18L41.53 514.9L39.59 514.54L37.67 514.11L35.78 513.6L33.92 513.02L32.09 512.36L30.3 511.64L28.54 510.86L26.82 510L25.14 509.09L23.49 508.11L21.89 507.06L20.33 505.96L18.81 504.81L17.34 503.59L15.92 502.32L14.55 501L13.23 499.63L11.96 498.21L10.75 496.74L9.59 495.23L8.49 493.66L7.45 492.06L6.47 490.42L5.55 488.73L4.7 487.01L3.91 485.25L3.19 483.46L2.54 481.63L1.95 479.77L1.45 477.88L1.01 475.96L0.65 474.02L0.37 472.05L0.16 470.06L0.04 468.04L0 466.01L0 152.5L0.04 150.46L0.16 148.45L0.37 146.45L0.65 144.48L1.01 142.54L1.45 140.62L1.95 138.73L2.54 136.88L3.19 135.05L3.91 133.25L4.7 131.5L5.55 129.77L6.47 128.09L7.45 126.44L8.49 124.84L9.59 123.28L10.75 121.76L11.96 120.3L13.23 118.87L14.55 117.5L15.92 116.18L17.34 114.91L18.81 113.7L20.33 112.54L21.89 111.44L23.49 110.4L25.14 109.42L26.82 108.5L28.54 107.65L30.3 106.86L32.09 106.14L33.92 105.49L35.78 104.91L37.67 104.4L39.59 103.96L41.53 103.6L43.5 103.32L45.49 103.12L47.51 102.99L49.54 102.95L276.94 102.95L277.43 102.96L277.92 102.99ZM23.72 466.14L23.74 467.21L23.81 468.26L23.92 469.3L24.06 470.33L24.25 471.35L24.48 472.35L24.75 473.34L25.05 474.31L25.39 475.26L25.77 476.2L26.18 477.12L26.62 478.02L27.1 478.9L27.62 479.75L28.16 480.59L28.74 481.4L29.34 482.19L29.97 482.95L30.64 483.69L31.33 484.41L32.04 485.09L32.78 485.75L33.55 486.38L34.34 486.99L35.15 487.56L35.99 488.1L36.85 488.61L37.72 489.08L38.62 489.53L39.54 489.93L40.47 490.31L41.42 490.65L42.39 490.95L43.37 491.21L44.37 491.44L45.38 491.62L46.4 491.77L47.44 491.87L48.49 491.94L49.54 491.96L523.35 491.96L524.42 491.94L525.47 491.87L526.51 491.77L527.54 491.62L528.56 491.44L529.56 491.21L530.55 490.95L531.52 490.65L532.48 490.31L533.41 489.93L534.33 489.53L535.23 489.08L536.11 488.61L536.96 488.1L537.8 487.56L538.61 486.99L539.4 486.38L540.16 485.75L540.9 485.09L541.62 484.41L542.3 483.69L542.96 482.95L543.59 482.19L544.2 481.4L544.77 480.59L545.31 479.75L545.82 478.9L546.29 478.02L546.74 477.12L547.15 476.2L547.52 475.26L547.86 474.31L548.16 473.34L548.42 472.35L548.65 471.35L548.83 470.33L548.98 469.3L549.09 468.26L549.15 467.21L549.17 466.14L549.17 436.78L23.72 436.78L23.72 466.14Z" id="b2ixvv1Fp1"></path><path d="M277.92 102.99L278.4 103.04L278.87 103.11L279.34 103.2L279.8 103.3L280.25 103.42L280.7 103.56L281.14 103.72L281.57 103.9L282 104.09L282.41 104.29L282.82 104.51L283.21 104.75L283.6 105L283.97 105.26L284.34 105.54L285.04 106.14L285.37 106.46L285.68 106.79L285.99 107.13L286.28 107.49L286.56 107.85L286.83 108.23L287.08 108.61L287.31 109.01L287.53 109.41L287.74 109.83L287.93 110.25L288.1 110.68L288.26 111.12L288.4 111.57L288.52 112.02L288.63 112.49L288.71 112.95L288.78 113.43L288.83 113.91L288.86 114.39L288.87 114.88L288.86 115.37L288.83 115.85L288.78 116.33L288.71 116.81L288.63 117.27L288.52 117.74L288.4 118.19L288.26 118.64L288.1 119.08L287.93 119.51L287.74 119.93L287.53 120.35L287.31 120.75L287.08 121.15L286.83 121.53L286.56 121.91L286.28 122.27L285.99 122.63L285.68 122.97L285.37 123.3L285.04 123.62L284.34 124.22L283.97 124.5L283.6 124.76L283.21 125.01L282.82 125.25L282.41 125.47L282 125.68L281.57 125.87L281.14 126.04L280.7 126.2L280.25 126.34L279.8 126.46L279.34 126.56L278.87 126.65L278.4 126.72L277.92 126.77L277.43 126.8L276.94 126.81L49.54 126.81L48.48 126.83L47.42 126.89L46.38 127L45.35 127.15L44.33 127.34L43.33 127.56L42.34 127.83L41.37 128.13L40.42 128.47L39.48 128.85L38.56 129.26L37.67 129.71L36.79 130.19L35.93 130.7L35.1 131.24L34.28 131.82L33.49 132.42L32.73 133.06L31.99 133.72L31.28 134.41L30.59 135.13L29.93 135.87L29.3 136.63L28.7 137.42L28.13 138.24L27.59 139.07L27.08 139.93L26.6 140.81L26.16 141.71L25.75 142.62L25.37 143.56L25.04 144.51L24.74 145.47L24.47 146.46L24.25 147.45L24.06 148.46L23.91 149.49L23.81 150.52L23.74 151.57L23.72 152.63L23.72 413.06L549.17 413.06L549.17 298.64L549.18 298.15L549.21 297.66L549.26 297.18L549.33 296.71L549.41 296.24L549.52 295.78L549.64 295.33L549.78 294.88L549.94 294.44L550.11 294.01L550.3 293.58L550.51 293.17L550.73 292.76L550.97 292.37L551.22 291.98L551.48 291.61L551.76 291.24L552.05 290.89L552.36 290.55L552.68 290.22L553.01 289.9L553.35 289.59L553.7 289.3L554.07 289.02L554.44 288.75L554.83 288.5L555.23 288.27L555.63 288.05L556.05 287.84L556.47 287.65L556.9 287.48L557.34 287.32L557.79 287.18L558.24 287.06L558.7 286.95L559.17 286.87L559.64 286.8L560.12 286.75L560.61 286.72L561.1 286.71L561.59 286.72L562.07 286.75L562.55 286.8L563.02 286.86L563.49 286.95L563.95 287.05L564.4 287.17L564.84 287.31L565.28 287.46L565.71 287.63L566.13 287.82L566.54 288.02L566.94 288.24L567.33 288.47L567.72 288.71L568.09 288.97L568.45 289.25L568.8 289.54L569.14 289.84L569.47 290.15L569.79 290.48L570.09 290.81L570.38 291.16L570.66 291.52L570.92 291.89L571.17 292.27L571.41 292.67L571.63 293.07L571.84 293.48L572.03 293.9L572.2 294.33L572.36 294.76L572.51 295.21L572.63 295.66L572.74 296.12L572.84 296.58L572.91 297.05L572.97 297.53L573.01 298.02L573.02 298.51L573.02 466.01L572.98 468.04L572.86 470.06L572.66 472.05L572.37 474.02L572.01 475.96L571.58 477.88L571.07 479.77L570.49 481.63L569.84 483.46L569.12 485.25L568.33 487.01L567.48 488.73L566.56 490.42L565.58 492.06L564.54 493.66L563.44 495.23L562.28 496.74L561.07 498.21L559.8 499.63L558.48 501L557.1 502.32L555.68 503.59L554.21 504.81L552.7 505.96L551.14 507.06L549.53 508.11L547.89 509.09L546.21 510L544.48 510.86L542.72 511.64L540.93 512.36L539.1 513.02L537.24 513.6L535.35 514.11L533.44 514.54L531.49 514.9L529.52 515.18L527.53 515.39L525.52 515.51L523.48 515.55L298.44 515.55L298.44 593.01L403.95 593.01L404.44 593.02L404.92 593.05L405.4 593.1L405.87 593.17L406.34 593.26L406.8 593.36L407.26 593.48L407.71 593.62L408.14 593.78L408.58 593.95L409 594.14L409.41 594.35L409.82 594.57L410.22 594.81L410.6 595.06L410.98 595.32L411.34 595.6L411.7 595.89L412.04 596.2L412.37 596.52L412.69 596.85L412.99 597.19L413.29 597.55L413.56 597.91L413.83 598.29L414.08 598.67L414.32 599.07L414.54 599.47L414.74 599.89L414.93 600.31L415.11 600.74L415.26 601.18L415.4 601.63L415.53 602.08L415.63 602.55L415.72 603.01L415.79 603.49L415.84 603.97L415.87 604.45L415.88 604.94L415.87 605.43L415.84 605.91L415.79 606.39L415.72 606.87L415.63 607.33L415.53 607.79L415.4 608.25L415.26 608.7L415.11 609.14L414.93 609.57L414.74 609.99L414.54 610.41L414.32 610.81L414.08 611.21L413.83 611.59L413.56 611.97L413.29 612.33L412.99 612.69L412.69 613.03L412.37 613.36L412.04 613.68L411.7 613.98L411.34 614.28L410.98 614.56L410.6 614.82L410.22 615.07L409.82 615.31L409.41 615.53L409 615.73L408.58 615.92L408.14 616.1L407.71 616.26L407.26 616.4L406.8 616.52L406.34 616.62L405.87 616.71L405.4 616.78L404.92 616.83L404.44 616.86L403.95 616.87L169.08 616.87L168.59 616.86L168.1 616.83L167.62 616.78L167.15 616.71L166.68 616.62L166.22 616.52L165.77 616.4L165.32 616.26L164.88 616.1L164.45 615.92L164.02 615.73L163.61 615.53L163.2 615.31L162.81 615.07L162.42 614.82L162.05 614.56L161.68 614.28L161.33 613.98L160.99 613.68L160.66 613.36L160.34 613.03L160.03 612.69L159.74 612.33L159.46 611.97L158.94 611.21L158.71 610.81L158.49 610.41L158.28 609.99L158.09 609.57L157.92 609.14L157.76 608.7L157.62 608.25L157.5 607.79L157.39 607.33L157.31 606.87L157.24 606.39L157.19 605.91L157.16 605.43L157.15 604.94L157.16 604.45L157.19 603.97L157.24 603.49L157.31 603.01L157.39 602.55L157.5 602.08L157.62 601.63L157.76 601.18L157.92 600.74L158.09 600.31L158.28 599.89L158.49 599.47L158.71 599.07L158.94 598.67L159.46 597.91L159.74 597.55L160.03 597.19L160.34 596.85L160.66 596.52L160.99 596.2L161.33 595.89L161.68 595.6L162.05 595.32L162.42 595.06L162.81 594.81L163.2 594.57L163.61 594.35L164.02 594.14L164.45 593.95L164.88 593.78L165.32 593.62L165.77 593.48L166.22 593.36L166.68 593.26L167.15 593.17L167.62 593.1L168.1 593.05L168.59 593.02L169.08 593.01L274.59 593.01L274.59 515.55L49.54 515.55L47.51 515.51L45.49 515.39L43.5 515.18L41.53 514.9L39.59 514.54L37.67 514.11L35.78 513.6L33.92 513.02L32.09 512.36L30.3 511.64L28.54 510.86L26.82 510L25.14 509.09L23.49 508.11L21.89 507.06L20.33 505.96L18.81 504.81L17.34 503.59L15.92 502.32L14.55 501L13.23 499.63L11.96 498.21L10.75 496.74L9.59 495.23L8.49 493.66L7.45 492.06L6.47 490.42L5.55 488.73L4.7 487.01L3.91 485.25L3.19 483.46L2.54 481.63L1.95 479.77L1.45 477.88L1.01 475.96L0.65 474.02L0.37 472.05L0.16 470.06L0.04 468.04L0 466.01L0 152.5L0.04 150.46L0.16 148.45L0.37 146.45L0.65 144.48L1.01 142.54L1.45 140.62L1.95 138.73L2.54 136.88L3.19 135.05L3.91 133.25L4.7 131.5L5.55 129.77L6.47 128.09L7.45 126.44L8.49 124.84L9.59 123.28L10.75 121.76L11.96 120.3L13.23 118.87L14.55 117.5L15.92 116.18L17.34 114.91L18.81 113.7L20.33 112.54L21.89 111.44L23.49 110.4L25.14 109.42L26.82 108.5L28.54 107.65L30.3 106.86L32.09 106.14L33.92 105.49L35.78 104.91L37.67 104.4L39.59 103.96L41.53 103.6L43.5 103.32L45.49 103.12L47.51 102.99L49.54 102.95L276.94 102.95L277.43 102.96L277.92 102.99ZM23.72 466.14L23.74 467.21L23.81 468.26L23.92 469.3L24.06 470.33L24.25 471.35L24.48 472.35L24.75 473.34L25.05 474.31L25.39 475.26L25.77 476.2L26.18 477.12L26.62 478.02L27.1 478.9L27.62 479.75L28.16 480.59L28.74 481.4L29.34 482.19L29.97 482.95L30.64 483.69L31.33 484.41L32.04 485.09L32.78 485.75L33.55 486.38L34.34 486.99L35.15 487.56L35.99 488.1L36.85 488.61L37.72 489.08L38.62 489.53L39.54 489.93L40.47 490.31L41.42 490.65L42.39 490.95L43.37 491.21L44.37 491.44L45.38 491.62L46.4 491.77L47.44 491.87L48.49 491.94L49.54 491.96L523.35 491.96L524.42 491.94L525.47 491.87L526.51 491.77L527.54 491.62L528.56 491.44L529.56 491.21L530.55 490.95L531.52 490.65L532.48 490.31L533.41 489.93L534.33 489.53L535.23 489.08L536.11 488.61L536.96 488.1L537.8 487.56L538.61 486.99L539.4 486.38L540.16 485.75L540.9 485.09L541.62 484.41L542.3 483.69L542.96 482.95L543.59 482.19L544.2 481.4L544.77 480.59L545.31 479.75L545.82 478.9L546.29 478.02L546.74 477.12L547.15 476.2L547.52 475.26L547.86 474.31L548.16 473.34L548.42 472.35L548.65 471.35L548.83 470.33L548.98 469.3L549.09 468.26L549.15 467.21L549.17 466.14L549.17 436.78L23.72 436.78L23.72 466.14Z" id="ai48pYt4e"></path><path d="M574.26 44.73L576.26 44.93L578.24 45.21L580.19 45.57L582.12 46.01L584.01 46.52L585.88 47.1L587.71 47.75L589.51 48.47L591.28 49.26L593.01 50.11L594.7 51.03L596.35 52.01L597.96 53.06L599.52 54.16L601.04 55.32L602.52 56.53L603.94 57.8L605.32 59.13L606.65 60.5L607.92 61.93L609.14 63.4L610.3 64.92L611.41 66.48L612.45 68.09L613.44 69.74L614.36 71.43L615.22 73.15L616.01 74.92L616.74 76.72L617.4 78.55L617.99 80.42L618.5 82.31L618.95 84.24L619.31 86.19L619.6 88.17L619.82 90.17L619.95 92.19L620 94.24L620 234.08L619.96 236.13L619.84 238.15L619.63 240.15L619.35 242.13L618.99 244.08L618.55 246.01L618.04 247.9L617.46 249.77L616.81 251.6L616.09 253.4L615.3 255.17L614.45 256.89L613.53 258.58L612.55 260.23L611.51 261.84L610.4 263.4L609.24 264.92L608.03 266.4L606.76 267.82L605.44 269.19L604.06 270.52L602.64 271.79L601.16 273L599.64 274.16L598.08 275.26L596.47 276.31L594.82 277.29L593.14 278.21L591.41 279.06L589.64 279.85L587.84 280.57L586.01 281.22L584.15 281.8L582.25 282.31L580.32 282.75L578.37 283.11L576.4 283.39L574.39 283.59L572.37 283.72L570.33 283.76L445.16 283.76L378.84 347.33L378.5 347.63L378.32 347.78L378.15 347.93L377.97 348.07L377.78 348.21L377.6 348.34L377.22 348.6L376.84 348.84L376.64 348.96L376.24 349.18L376.04 349.28L375.84 349.39L375.63 349.48L375.42 349.58L375.21 349.67L374.58 349.91L374.36 349.98L374.15 350.05L373.93 350.12L373.49 350.24L372.83 350.39L372.61 350.43L372.38 350.46L372.16 350.5L371.93 350.52L371.71 350.55L371.48 350.57L371.26 350.58L371.03 350.59L370.81 350.6L370.1 350.6L369.98 350.59L369.86 350.59L369.02 350.52L368.9 350.5L368.78 350.49L368.65 350.47L368.05 350.37L367.93 350.34L367.81 350.32L367.57 350.26L367.45 350.24L367.34 350.2L367.1 350.14L366.99 350.11L366.75 350.03L366.53 349.95L366.41 349.91L366.19 349.83L365.97 349.73L365.86 349.69L365.22 349.39L364.91 349.23L364.31 348.89L364.02 348.7L363.73 348.5L363.45 348.3L362.91 347.88L362.65 347.65L362.4 347.42L362.15 347.18L361.91 346.93L361.68 346.68L361.24 346.16L361.03 345.89L360.63 345.33L360.27 344.75L360.1 344.45L359.94 344.15L359.79 343.84L359.65 343.53L359.39 342.89L359.28 342.57L359.17 342.24L359.07 341.91L358.99 341.57L358.91 341.24L358.84 340.9L358.78 340.55L358.74 340.21L358.7 339.86L358.67 339.51L358.65 338.81L358.65 283.89L340.96 283.89L338.91 283.85L336.89 283.73L334.89 283.52L332.91 283.24L330.96 282.88L329.03 282.44L327.14 281.94L325.27 281.35L323.44 280.7L321.64 279.98L319.88 279.19L318.15 278.34L316.46 277.42L314.81 276.44L313.2 275.4L311.64 274.29L310.12 273.13L308.65 271.92L307.22 270.65L305.85 269.33L304.53 267.95L303.26 266.53L302.04 265.05L300.88 263.53L299.78 261.97L298.74 260.36L297.76 258.71L296.84 257.03L295.98 255.3L295.19 253.53L294.47 251.73L293.82 249.9L293.24 248.04L292.73 246.14L292.29 244.22L291.94 242.26L291.65 240.29L291.45 238.28L291.33 236.26L291.28 234.22L291.28 94.24L291.33 92.19L291.45 90.17L291.65 88.17L291.94 86.19L292.29 84.24L292.73 82.31L293.24 80.42L293.82 78.55L294.47 76.72L295.19 74.92L295.98 73.15L296.84 71.43L297.76 69.74L298.74 68.09L299.78 66.48L300.88 64.92L302.04 63.4L303.26 61.93L304.53 60.5L305.85 59.13L307.22 57.8L308.65 56.53L310.12 55.32L311.64 54.16L313.2 53.06L314.81 52.01L316.46 51.03L318.15 50.11L319.88 49.26L321.64 48.47L323.44 47.75L325.27 47.1L327.14 46.52L329.03 46.01L330.96 45.57L332.91 45.21L334.89 44.93L336.89 44.73L338.91 44.6L340.96 44.56L570.19 44.56L572.24 44.6L574.26 44.73ZM339.89 68.44L338.84 68.5L337.79 68.61L336.76 68.75L335.75 68.94L334.75 69.16L333.76 69.43L332.79 69.73L331.83 70.07L330.9 70.44L329.98 70.85L329.08 71.29L328.2 71.77L327.35 72.28L326.51 72.82L325.7 73.39L324.91 73.99L324.14 74.62L323.4 75.28L322.69 75.97L322 76.68L321.34 77.42L320.71 78.19L320.11 78.98L319.54 79.79L319 80.62L318.49 81.48L318.02 82.36L317.57 83.26L317.16 84.17L316.79 85.11L316.45 86.07L316.15 87.04L315.89 88.02L315.66 89.03L315.48 90.04L315.33 91.07L315.22 92.12L315.16 93.17L315.14 94.24L315.14 233.95L315.16 235.02L315.22 236.07L315.33 237.12L315.48 238.15L315.66 239.16L315.89 240.17L316.15 241.15L316.45 242.12L316.79 243.08L317.16 244.02L317.57 244.93L318.02 245.83L318.49 246.71L319 247.57L319.54 248.4L320.11 249.21L320.71 250L321.34 250.77L322 251.51L322.69 252.22L323.4 252.91L324.14 253.57L324.91 254.2L325.7 254.8L326.51 255.37L327.35 255.91L328.2 256.42L329.08 256.9L329.98 257.34L330.9 257.75L331.83 258.12L332.79 258.46L333.76 258.76L334.75 259.02L335.75 259.25L336.76 259.44L337.79 259.58L338.84 259.69L339.89 259.75L340.96 259.77L370.58 259.77L370.82 259.78L371.05 259.78L371.28 259.8L371.52 259.81L371.75 259.83L371.98 259.86L372.22 259.89L372.68 259.97L372.9 260.01L373.13 260.06L373.36 260.12L373.58 260.18L373.81 260.24L374.47 260.45L374.69 260.53L374.9 260.62L375.12 260.71L375.33 260.8L375.54 260.9L375.96 261.1L376.16 261.21L376.37 261.33L376.57 261.44L376.77 261.57L376.96 261.69L377.16 261.82L377.35 261.95L377.54 262.09L377.73 262.23L377.91 262.37L378.1 262.52L378.28 262.67L378.45 262.83L378.63 262.99L378.97 263.31L379.13 263.48L379.3 263.65L379.45 263.83L379.61 264L379.76 264.18L379.91 264.37L380.05 264.55L380.33 264.93L380.46 265.12L380.59 265.32L380.71 265.51L380.84 265.71L380.95 265.91L381.07 266.12L381.18 266.32L381.48 266.95L381.57 267.16L381.66 267.38L381.75 267.59L381.83 267.81L382.04 268.47L382.1 268.7L382.16 268.92L382.22 269.15L382.27 269.38L382.31 269.61L382.35 269.83L382.39 270.07L382.45 270.53L382.47 270.76L382.48 271L382.5 271.23L382.5 271.47L382.51 271.7L382.51 310.76L432.18 263.18L432.35 263.03L432.52 262.87L432.7 262.73L432.87 262.58L433.23 262.3L433.42 262.17L433.61 262.04L433.99 261.78L434.18 261.67L434.38 261.55L434.78 261.33L434.98 261.22L435.18 261.12L435.39 261.03L435.6 260.93L435.8 260.84L436.01 260.76L436.23 260.68L436.44 260.6L436.66 260.52L436.87 260.45L437.53 260.27L437.75 260.22L438.19 260.12L438.41 260.08L438.64 260.04L438.86 260.01L439.08 259.98L439.31 259.96L439.53 259.94L439.76 259.92L439.99 259.91L440.21 259.91L440.44 259.9L570.33 259.9L571.04 259.89L571.75 259.84L572.45 259.76L573.16 259.65L573.85 259.5L574.55 259.32L575.24 259.11L575.93 258.87L576.62 258.6L577.3 258.29L577.97 257.95L578.65 257.58L579.32 257.18L579.99 256.74L580.65 256.27L581.31 255.77L581.97 255.24L582.63 254.68L583.28 254.08L583.92 253.45L584.57 252.79L585.21 252.09L585.84 251.37L586.48 250.61L587.11 249.82L587.73 249L588.36 248.14L588.98 247.25L589.59 246.33L590.21 245.38L590.82 244.4L591.42 243.38L592.02 242.33L592.62 241.25L593.22 240.14L593.81 238.99L594.4 237.81L594.99 236.6L595.57 235.36L596.15 234.08L596.01 234.08L596.01 94.24L595.99 93.17L595.93 92.12L595.82 91.07L595.68 90.04L595.49 89.03L595.27 88.02L595 87.04L594.7 86.07L594.36 85.11L593.99 84.17L593.58 83.26L593.14 82.36L592.66 81.48L592.15 80.62L591.61 79.79L591.04 78.98L590.44 78.19L589.81 77.42L589.15 76.68L588.46 75.97L587.75 75.28L587.01 74.62L586.24 73.99L585.45 73.39L584.64 72.82L583.81 72.28L582.95 71.77L582.07 71.29L581.17 70.85L580.26 70.44L579.32 70.07L578.37 69.73L577.39 69.43L576.41 69.16L575.41 68.94L574.39 68.75L573.36 68.61L572.32 68.5L571.26 68.44L570.19 68.42L340.96 68.42L339.89 68.44Z" id="c5XzGWwh4"></path><path d="M574.26 44.73L576.26 44.93L578.24 45.21L580.19 45.57L582.12 46.01L584.01 46.52L585.88 47.1L587.71 47.75L589.51 48.47L591.28 49.26L593.01 50.11L594.7 51.03L596.35 52.01L597.96 53.06L599.52 54.16L601.04 55.32L602.52 56.53L603.94 57.8L605.32 59.13L606.65 60.5L607.92 61.93L609.14 63.4L610.3 64.92L611.41 66.48L612.45 68.09L613.44 69.74L614.36 71.43L615.22 73.15L616.01 74.92L616.74 76.72L617.4 78.55L617.99 80.42L618.5 82.31L618.95 84.24L619.31 86.19L619.6 88.17L619.82 90.17L619.95 92.19L620 94.24L620 234.08L619.96 236.13L619.84 238.15L619.63 240.15L619.35 242.13L618.99 244.08L618.55 246.01L618.04 247.9L617.46 249.77L616.81 251.6L616.09 253.4L615.3 255.17L614.45 256.89L613.53 258.58L612.55 260.23L611.51 261.84L610.4 263.4L609.24 264.92L608.03 266.4L606.76 267.82L605.44 269.19L604.06 270.52L602.64 271.79L601.16 273L599.64 274.16L598.08 275.26L596.47 276.31L594.82 277.29L593.14 278.21L591.41 279.06L589.64 279.85L587.84 280.57L586.01 281.22L584.15 281.8L582.25 282.31L580.32 282.75L578.37 283.11L576.4 283.39L574.39 283.59L572.37 283.72L570.33 283.76L445.16 283.76L378.84 347.33L378.5 347.63L378.32 347.78L378.15 347.93L377.97 348.07L377.78 348.21L377.6 348.34L377.22 348.6L376.84 348.84L376.64 348.96L376.24 349.18L376.04 349.28L375.84 349.39L375.63 349.48L375.42 349.58L375.21 349.67L374.58 349.91L374.36 349.98L374.15 350.05L373.93 350.12L373.49 350.24L372.83 350.39L372.61 350.43L372.38 350.46L372.16 350.5L371.93 350.52L371.71 350.55L371.48 350.57L371.26 350.58L371.03 350.59L370.81 350.6L370.1 350.6L369.98 350.59L369.86 350.59L369.02 350.52L368.9 350.5L368.78 350.49L368.65 350.47L368.05 350.37L367.93 350.34L367.81 350.32L367.57 350.26L367.45 350.24L367.34 350.2L367.1 350.14L366.99 350.11L366.75 350.03L366.53 349.95L366.41 349.91L366.19 349.83L365.97 349.73L365.86 349.69L365.22 349.39L364.91 349.23L364.31 348.89L364.02 348.7L363.73 348.5L363.45 348.3L362.91 347.88L362.65 347.65L362.4 347.42L362.15 347.18L361.91 346.93L361.68 346.68L361.24 346.16L361.03 345.89L360.63 345.33L360.27 344.75L360.1 344.45L359.94 344.15L359.79 343.84L359.65 343.53L359.39 342.89L359.28 342.57L359.17 342.24L359.07 341.91L358.99 341.57L358.91 341.24L358.84 340.9L358.78 340.55L358.74 340.21L358.7 339.86L358.67 339.51L358.65 338.81L358.65 283.89L340.96 283.89L338.91 283.85L336.89 283.73L334.89 283.52L332.91 283.24L330.96 282.88L329.03 282.44L327.14 281.94L325.27 281.35L323.44 280.7L321.64 279.98L319.88 279.19L318.15 278.34L316.46 277.42L314.81 276.44L313.2 275.4L311.64 274.29L310.12 273.13L308.65 271.92L307.22 270.65L305.85 269.33L304.53 267.95L303.26 266.53L302.04 265.05L300.88 263.53L299.78 261.97L298.74 260.36L297.76 258.71L296.84 257.03L295.98 255.3L295.19 253.53L294.47 251.73L293.82 249.9L293.24 248.04L292.73 246.14L292.29 244.22L291.94 242.26L291.65 240.29L291.45 238.28L291.33 236.26L291.28 234.22L291.28 94.24L291.33 92.19L291.45 90.17L291.65 88.17L291.94 86.19L292.29 84.24L292.73 82.31L293.24 80.42L293.82 78.55L294.47 76.72L295.19 74.92L295.98 73.15L296.84 71.43L297.76 69.74L298.74 68.09L299.78 66.48L300.88 64.92L302.04 63.4L303.26 61.93L304.53 60.5L305.85 59.13L307.22 57.8L308.65 56.53L310.12 55.32L311.64 54.16L313.2 53.06L314.81 52.01L316.46 51.03L318.15 50.11L319.88 49.26L321.64 48.47L323.44 47.75L325.27 47.1L327.14 46.52L329.03 46.01L330.96 45.57L332.91 45.21L334.89 44.93L336.89 44.73L338.91 44.6L340.96 44.56L570.19 44.56L572.24 44.6L574.26 44.73ZM339.89 68.44L338.84 68.5L337.79 68.61L336.76 68.75L335.75 68.94L334.75 69.16L333.76 69.43L332.79 69.73L331.83 70.07L330.9 70.44L329.98 70.85L329.08 71.29L328.2 71.77L327.35 72.28L326.51 72.82L325.7 73.39L324.91 73.99L324.14 74.62L323.4 75.28L322.69 75.97L322 76.68L321.34 77.42L320.71 78.19L320.11 78.98L319.54 79.79L319 80.62L318.49 81.48L318.02 82.36L317.57 83.26L317.16 84.17L316.79 85.11L316.45 86.07L316.15 87.04L315.89 88.02L315.66 89.03L315.48 90.04L315.33 91.07L315.22 92.12L315.16 93.17L315.14 94.24L315.14 233.95L315.16 235.02L315.22 236.07L315.33 237.12L315.48 238.15L315.66 239.16L315.89 240.17L316.15 241.15L316.45 242.12L316.79 243.08L317.16 244.02L317.57 244.93L318.02 245.83L318.49 246.71L319 247.57L319.54 248.4L320.11 249.21L320.71 250L321.34 250.77L322 251.51L322.69 252.22L323.4 252.91L324.14 253.57L324.91 254.2L325.7 254.8L326.51 255.37L327.35 255.91L328.2 256.42L329.08 256.9L329.98 257.34L330.9 257.75L331.83 258.12L332.79 258.46L333.76 258.76L334.75 259.02L335.75 259.25L336.76 259.44L337.79 259.58L338.84 259.69L339.89 259.75L340.96 259.77L370.58 259.77L370.82 259.78L371.05 259.78L371.28 259.8L371.52 259.81L371.75 259.83L371.98 259.86L372.22 259.89L372.68 259.97L372.9 260.01L373.13 260.06L373.36 260.12L373.58 260.18L373.81 260.24L374.47 260.45L374.69 260.53L374.9 260.62L375.12 260.71L375.33 260.8L375.54 260.9L375.96 261.1L376.16 261.21L376.37 261.33L376.57 261.44L376.77 261.57L376.96 261.69L377.16 261.82L377.35 261.95L377.54 262.09L377.73 262.23L377.91 262.37L378.1 262.52L378.28 262.67L378.45 262.83L378.63 262.99L378.97 263.31L379.13 263.48L379.3 263.65L379.45 263.83L379.61 264L379.76 264.18L379.91 264.37L380.05 264.55L380.33 264.93L380.46 265.12L380.59 265.32L380.71 265.51L380.84 265.71L380.95 265.91L381.07 266.12L381.18 266.32L381.48 266.95L381.57 267.16L381.66 267.38L381.75 267.59L381.83 267.81L382.04 268.47L382.1 268.7L382.16 268.92L382.22 269.15L382.27 269.38L382.31 269.61L382.35 269.83L382.39 270.07L382.45 270.53L382.47 270.76L382.48 271L382.5 271.23L382.5 271.47L382.51 271.7L382.51 310.76L432.18 263.18L432.35 263.03L432.52 262.87L432.7 262.73L432.87 262.58L433.23 262.3L433.42 262.17L433.61 262.04L433.99 261.78L434.18 261.67L434.38 261.55L434.78 261.33L434.98 261.22L435.18 261.12L435.39 261.03L435.6 260.93L435.8 260.84L436.01 260.76L436.23 260.68L436.44 260.6L436.66 260.52L436.87 260.45L437.53 260.27L437.75 260.22L438.19 260.12L438.41 260.08L438.64 260.04L438.86 260.01L439.08 259.98L439.31 259.96L439.53 259.94L439.76 259.92L439.99 259.91L440.21 259.91L440.44 259.9L570.33 259.9L571.04 259.89L571.75 259.84L572.45 259.76L573.16 259.65L573.85 259.5L574.55 259.32L575.24 259.11L575.93 258.87L576.62 258.6L577.3 258.29L577.97 257.95L578.65 257.58L579.32 257.18L579.99 256.74L580.65 256.27L581.31 255.77L581.97 255.24L582.63 254.68L583.28 254.08L583.92 253.45L584.57 252.79L585.21 252.09L585.84 251.37L586.48 250.61L587.11 249.82L587.73 249L588.36 248.14L588.98 247.25L589.59 246.33L590.21 245.38L590.82 244.4L591.42 243.38L592.02 242.33L592.62 241.25L593.22 240.14L593.81 238.99L594.4 237.81L594.99 236.6L595.57 235.36L596.15 234.08L596.01 234.08L596.01 94.24L595.99 93.17L595.93 92.12L595.82 91.07L595.68 90.04L595.49 89.03L595.27 88.02L595 87.04L594.7 86.07L594.36 85.11L593.99 84.17L593.58 83.26L593.14 82.36L592.66 81.48L592.15 80.62L591.61 79.79L591.04 78.98L590.44 78.19L589.81 77.42L589.15 76.68L588.46 75.97L587.75 75.28L587.01 74.62L586.24 73.99L585.45 73.39L584.64 72.82L583.81 72.28L582.95 71.77L582.07 71.29L581.17 70.85L580.26 70.44L579.32 70.07L578.37 69.73L577.39 69.43L576.41 69.16L575.41 68.94L574.39 68.75L573.36 68.61L572.32 68.5L571.26 68.44L570.19 68.42L340.96 68.42L339.89 68.44Z" id="bfcO8Kn9"></path><path d="" id="a1uqMAe12H"></path></defs><g><g><g><use xlink:href="#a2BSEfhr0o" opacity="1" fill="#e53935" fill-opacity="1"></use><g><use xlink:href="#a2BSEfhr0o" opacity="1" fill-opacity="0" stroke="#000000" stroke-width="1" stroke-opacity="0"></use></g></g><g><use xlink:href="#b5uo86zYSu" opacity="1" fill="#000000" fill-opacity="0"></use><g><use xlink:href="#b5uo86zYSu" opacity="1" fill-opacity="0" stroke="#000000" stroke-width="1" stroke-opacity="0"></use></g></g><g><use xlink:href="#aNd2WfeWa" opacity="1" fill="#00bcd4" fill-opacity="1"></use><g><use xlink:href="#aNd2WfeWa" opacity="1" fill-opacity="0" stroke="#000000" stroke-width="1" stroke-opacity="0"></use></g></g><g><use xlink:href="#b2ixvv1Fp1" opacity="1" fill="#000000" fill-opacity="0"></use><g><use xlink:href="#b2ixvv1Fp1" opacity="1" fill-opacity="0" stroke="#000000" stroke-width="1" stroke-opacity="0"></use></g></g><g><use xlink:href="#ai48pYt4e" opacity="1" fill="#000000" fill-opacity="1"></use><g><use xlink:href="#ai48pYt4e" opacity="1" fill-opacity="0" stroke="#000000" stroke-width="1" stroke-opacity="0"></use></g></g><g><use xlink:href="#c5XzGWwh4" opacity="1" fill="#000000" fill-opacity="1"></use><g><use xlink:href="#c5XzGWwh4" opacity="1" fill-opacity="0" stroke="#000000" stroke-width="1" stroke-opacity="0"></use></g></g><g><use xlink:href="#bfcO8Kn9" opacity="1" fill="#000000" fill-opacity="0"></use><g><use xlink:href="#bfcO8Kn9" opacity="1" fill-opacity="0" stroke="#000000" stroke-width="1" stroke-opacity="0"></use></g></g><g><g><use xlink:href="#a1uqMAe12H" opacity="1" fill-opacity="0" stroke="#000000" stroke-width="3" stroke-opacity="1"></use></g></g></g></g></svg>